<svg id="SvgjsSvg1066" width="288" height="288" xmlns="http://www.w3.org/2000/svg" version="1.1" xmlns:xlink="http://www.w3.org/1999/xlink" xmlns:svgjs="http://svgjs.com/svgjs"><defs id="SvgjsDefs1067"></defs><g id="SvgjsG1068"><svg xmlns="http://www.w3.org/2000/svg" id="Layer_1" x="0" y="0" version="1.1" viewBox="0 0 29 29" xml:space="preserve" width="288" height="288"><path d="M14.5 27.071c-6.893 0-12.5-5.607-12.5-12.5s5.607-12.5 12.5-12.5S27 7.678 27 14.571s-5.607 12.5-12.5 12.5zm0-23c-5.79 0-10.5 4.71-10.5 10.5s4.71 10.5 10.5 10.5S25 20.36 25 14.571s-4.71-10.5-10.5-10.5z" fill="#539e84" class="color000 svgShape"></path><path d="M20.5 15.571h-12a1 1 0 0 1 0-2h12a1 1 0 0 1 0 2z" fill="#539e84" class="color000 svgShape"></path></svg></g></svg>